<svg id="Layer_1" data-name="Layer 1" xmlns="http://www.w3.org/2000/svg" viewBox="0 0 48 48"><defs><style>.cls-1{fill:#f48a4e;}.cls-2{fill:#a4d2ff;}.cls-3{fill:#ffbf8e;}.cls-4{fill:#e79165;}.cls-5{fill:#ffde76;}.cls-6{fill:#3b506d;}.cls-7{fill:#c6c3d8;}.cls-8{fill:#687d94;}</style></defs><title>truck, moving, vehicle, transport, transportation, shipping</title><path class="cls-1" d="M48,27V40H0V31H30V15.5A2.5,2.5,0,0,1,32.5,13h8.74a2.49,2.49,0,0,1,2.35,1.66L44.07,16Z"/><polygon class="cls-2" points="48 27 33 27 33 16 44.07 16 48 27"/><rect class="cls-3" y="3" width="30" height="28"/><polygon class="cls-4" points="18 3 18 8 16.5 6.8 15 8 13.5 6.8 12 8 12 3 18 3"/><path class="cls-5" d="M47.5,32H48a0,0,0,0,1,0,0v4a0,0,0,0,1,0,0h-.5A1.5,1.5,0,0,1,46,34.5v-1A1.5,1.5,0,0,1,47.5,32Z"/><circle class="cls-6" cx="40" cy="40" r="5"/><circle class="cls-7" cx="40" cy="40" r="2"/><circle class="cls-6" cx="8" cy="40" r="5"/><circle class="cls-7" cx="8" cy="40" r="2"/><rect class="cls-8" x="4" y="23" width="3" height="5"/><polygon class="cls-8" points="8.98 23 1.98 23 5.48 20 8.98 23"/></svg>